<mxfile host="app.diagrams.net" agent="Mozilla/5.0 (Macintosh; Intel Mac OS X 10_15_7) AppleWebKit/537.36 (KHTML, like Gecko) Chrome/129.0.0.0 Safari/537.36" version="24.8.4">
  <diagram name="Страница — 1" id="hj7CFw5oaHOUqpzhWUgJ">
    <mxGraphModel dx="2381" dy="1526" grid="1" gridSize="10" guides="1" tooltips="1" connect="1" arrows="1" fold="1" page="1" pageScale="1" pageWidth="827" pageHeight="583" math="0" shadow="0">
      <root>
        <mxCell id="0" />
        <mxCell id="1" parent="0" />
        <mxCell id="FGlAUtilV3WjWaG7oi7A-32" style="edgeStyle=orthogonalEdgeStyle;rounded=0;orthogonalLoop=1;jettySize=auto;html=1;entryX=1;entryY=0.5;entryDx=0;entryDy=0;" parent="1" source="tyJL5RVhGpzJcOc0of-g-1" target="tyJL5RVhGpzJcOc0of-g-17" edge="1">
          <mxGeometry relative="1" as="geometry">
            <Array as="points">
              <mxPoint x="180" y="70" />
              <mxPoint x="180" y="365" />
            </Array>
          </mxGeometry>
        </mxCell>
        <mxCell id="28Fehn1Z3vGQUDsWFlqz-10" style="edgeStyle=orthogonalEdgeStyle;rounded=0;orthogonalLoop=1;jettySize=auto;html=1;entryX=0;entryY=0.5;entryDx=0;entryDy=0;" edge="1" parent="1" source="tyJL5RVhGpzJcOc0of-g-1" target="tyJL5RVhGpzJcOc0of-g-3">
          <mxGeometry relative="1" as="geometry">
            <Array as="points">
              <mxPoint y="70" />
              <mxPoint y="509" />
            </Array>
          </mxGeometry>
        </mxCell>
        <mxCell id="tyJL5RVhGpzJcOc0of-g-1" value="Пользователь" style="rounded=0;whiteSpace=wrap;html=1;" parent="1" vertex="1">
          <mxGeometry x="30" y="40" width="120" height="60" as="geometry" />
        </mxCell>
        <mxCell id="tyJL5RVhGpzJcOc0of-g-3" value="Свой список&lt;div&gt;активностей&lt;/div&gt;" style="rounded=0;whiteSpace=wrap;html=1;" parent="1" vertex="1">
          <mxGeometry x="30" y="478.5" width="120" height="60" as="geometry" />
        </mxCell>
        <mxCell id="tyJL5RVhGpzJcOc0of-g-17" value="Список кандидатов" style="rounded=0;whiteSpace=wrap;html=1;" parent="1" vertex="1">
          <mxGeometry x="30" y="335.5" width="120" height="60" as="geometry" />
        </mxCell>
        <mxCell id="tyJL5RVhGpzJcOc0of-g-39" value="Атрибут" style="rounded=0;whiteSpace=wrap;html=1;fontStyle=1;fillColor=#d5e8d4;strokeColor=#82b366;" parent="1" vertex="1">
          <mxGeometry x="240" y="70" width="210" height="30" as="geometry" />
        </mxCell>
        <mxCell id="tyJL5RVhGpzJcOc0of-g-40" value="Описание" style="rounded=0;whiteSpace=wrap;html=1;fontStyle=1;fillColor=#d5e8d4;strokeColor=#82b366;" parent="1" vertex="1">
          <mxGeometry x="450" y="70" width="390" height="30" as="geometry" />
        </mxCell>
        <mxCell id="tyJL5RVhGpzJcOc0of-g-45" value="Имя" style="rounded=0;whiteSpace=wrap;html=1;" parent="1" vertex="1">
          <mxGeometry x="240" y="100" width="210" height="30" as="geometry" />
        </mxCell>
        <mxCell id="tyJL5RVhGpzJcOc0of-g-46" value="Ник пользователя" style="rounded=0;whiteSpace=wrap;html=1;" parent="1" vertex="1">
          <mxGeometry x="450" y="100" width="390" height="30" as="geometry" />
        </mxCell>
        <mxCell id="tyJL5RVhGpzJcOc0of-g-48" value="Почта" style="rounded=0;whiteSpace=wrap;html=1;" parent="1" vertex="1">
          <mxGeometry x="240" y="130" width="210" height="30" as="geometry" />
        </mxCell>
        <mxCell id="tyJL5RVhGpzJcOc0of-g-49" value="Адрес электронной почты" style="rounded=0;whiteSpace=wrap;html=1;" parent="1" vertex="1">
          <mxGeometry x="450" y="130" width="390" height="30" as="geometry" />
        </mxCell>
        <mxCell id="tyJL5RVhGpzJcOc0of-g-131" value="&lt;p style=&quot;box-sizing: border-box; margin-top: 0px; margin-bottom: var(--base-size-16); color: rgb(31, 35, 40); font-family: -apple-system, &amp;quot;system-ui&amp;quot;, &amp;quot;Segoe UI&amp;quot;, &amp;quot;Noto Sans&amp;quot;, Helvetica, Arial, sans-serif, &amp;quot;Apple Color Emoji&amp;quot;, &amp;quot;Segoe UI Emoji&amp;quot;; font-size: 16px; background-color: rgb(255, 255, 255);&quot; dir=&quot;auto&quot;&gt;Я, как пользователь приложения знакомств,&lt;/p&gt;&lt;p style=&quot;box-sizing: border-box; margin-top: 0px; color: rgb(31, 35, 40); font-family: -apple-system, &amp;quot;system-ui&amp;quot;, &amp;quot;Segoe UI&amp;quot;, &amp;quot;Noto Sans&amp;quot;, Helvetica, Arial, sans-serif, &amp;quot;Apple Color Emoji&amp;quot;, &amp;quot;Segoe UI Emoji&amp;quot;; font-size: 16px; background-color: rgb(255, 255, 255); margin-bottom: 0px !important;&quot; dir=&quot;auto&quot;&gt;хочу иметь возможность выбрать интересующую меня активность на определенный день (велопрогулка, поход в кино, настолки и т.д.), чтобы найти людей с похожими интересами, с которыми можно провести время и заодно познакомиться.&lt;/p&gt;" style="text;whiteSpace=wrap;html=1;" parent="1" vertex="1">
          <mxGeometry y="-95" width="840" height="95" as="geometry" />
        </mxCell>
        <mxCell id="tyJL5RVhGpzJcOc0of-g-133" value="&lt;b&gt;&lt;font style=&quot;font-size: 14px;&quot;&gt;Объект Пользователь&lt;/font&gt;&lt;/b&gt;" style="text;html=1;align=left;verticalAlign=middle;whiteSpace=wrap;rounded=0;" parent="1" vertex="1">
          <mxGeometry x="250" y="30" width="190" height="30" as="geometry" />
        </mxCell>
        <mxCell id="tyJL5RVhGpzJcOc0of-g-134" value="&lt;b style=&quot;text-align: center;&quot;&gt;&lt;font style=&quot;font-size: 14px;&quot;&gt;Объект Активность&lt;/font&gt;&lt;/b&gt;" style="text;whiteSpace=wrap;html=1;" parent="1" vertex="1">
          <mxGeometry x="250" y="480" width="270" height="30" as="geometry" />
        </mxCell>
        <mxCell id="tyJL5RVhGpzJcOc0of-g-135" value="Атрибут" style="rounded=0;whiteSpace=wrap;html=1;fontStyle=1;fillColor=#d5e8d4;strokeColor=#82b366;" parent="1" vertex="1">
          <mxGeometry x="240" y="517" width="210" height="30" as="geometry" />
        </mxCell>
        <mxCell id="tyJL5RVhGpzJcOc0of-g-136" value="Описание" style="rounded=0;whiteSpace=wrap;html=1;fontStyle=1;fillColor=#d5e8d4;strokeColor=#82b366;" parent="1" vertex="1">
          <mxGeometry x="450" y="517" width="390" height="30" as="geometry" />
        </mxCell>
        <mxCell id="tyJL5RVhGpzJcOc0of-g-171" value="&lt;span style=&quot;text-align: left;&quot;&gt;Дата и время&lt;/span&gt;" style="rounded=0;whiteSpace=wrap;html=1;" parent="1" vertex="1">
          <mxGeometry x="240" y="547" width="210" height="40" as="geometry" />
        </mxCell>
        <mxCell id="tyJL5RVhGpzJcOc0of-g-172" value="чч:мм дд/мм/гггг" style="rounded=0;whiteSpace=wrap;html=1;" parent="1" vertex="1">
          <mxGeometry x="450" y="547" width="390" height="40" as="geometry" />
        </mxCell>
        <mxCell id="tyJL5RVhGpzJcOc0of-g-173" value="&lt;div style=&quot;text-align: left;&quot;&gt;&lt;span style=&quot;background-color: initial;&quot;&gt;Место&lt;/span&gt;&lt;/div&gt;" style="rounded=0;whiteSpace=wrap;html=1;" parent="1" vertex="1">
          <mxGeometry x="240" y="587" width="210" height="40" as="geometry" />
        </mxCell>
        <mxCell id="tyJL5RVhGpzJcOc0of-g-174" value="Место проведения активности" style="rounded=0;whiteSpace=wrap;html=1;align=center;spacingLeft=7;" parent="1" vertex="1">
          <mxGeometry x="450" y="587" width="390" height="40" as="geometry" />
        </mxCell>
        <mxCell id="FGlAUtilV3WjWaG7oi7A-2" value="Поиск активности" style="rounded=0;whiteSpace=wrap;html=1;" parent="1" vertex="1">
          <mxGeometry x="30" y="185" width="120" height="60" as="geometry" />
        </mxCell>
        <mxCell id="FGlAUtilV3WjWaG7oi7A-12" value="Формирует" style="edgeLabel;html=1;align=center;verticalAlign=middle;resizable=0;points=[];" parent="1" vertex="1" connectable="0">
          <mxGeometry x="-10" y="285.0041379310344" as="geometry" />
        </mxCell>
        <mxCell id="FGlAUtilV3WjWaG7oi7A-13" style="edgeStyle=orthogonalEdgeStyle;rounded=0;orthogonalLoop=1;jettySize=auto;html=1;exitX=0.5;exitY=1;exitDx=0;exitDy=0;" parent="1" edge="1">
          <mxGeometry relative="1" as="geometry">
            <mxPoint x="89.93" y="100" as="sourcePoint" />
            <mxPoint x="89.43" y="183" as="targetPoint" />
            <Array as="points">
              <mxPoint x="90.43" y="176" />
              <mxPoint x="89.43" y="176" />
            </Array>
          </mxGeometry>
        </mxCell>
        <mxCell id="FGlAUtilV3WjWaG7oi7A-15" value="Создает" style="edgeLabel;html=1;align=center;verticalAlign=middle;resizable=0;points=[];" parent="1" vertex="1" connectable="0">
          <mxGeometry x="90" y="145" as="geometry" />
        </mxCell>
        <mxCell id="FGlAUtilV3WjWaG7oi7A-16" style="edgeStyle=orthogonalEdgeStyle;rounded=0;orthogonalLoop=1;jettySize=auto;html=1;exitX=0.5;exitY=1;exitDx=0;exitDy=0;entryX=0.5;entryY=0;entryDx=0;entryDy=0;" parent="1" target="tyJL5RVhGpzJcOc0of-g-17" edge="1">
          <mxGeometry relative="1" as="geometry">
            <mxPoint x="90.16000000000001" y="245" as="sourcePoint" />
            <mxPoint x="89.66000000000001" y="328" as="targetPoint" />
            <Array as="points">
              <mxPoint x="90" y="321" />
            </Array>
          </mxGeometry>
        </mxCell>
        <mxCell id="FGlAUtilV3WjWaG7oi7A-26" value="&lt;div style=&quot;text-align: left;&quot;&gt;Пользователи активности&lt;/div&gt;" style="rounded=0;whiteSpace=wrap;html=1;" parent="1" vertex="1">
          <mxGeometry x="240" y="625.5" width="210" height="40" as="geometry" />
        </mxCell>
        <mxCell id="FGlAUtilV3WjWaG7oi7A-27" value="Кто идет на активность" style="rounded=0;whiteSpace=wrap;html=1;align=center;spacingLeft=7;" parent="1" vertex="1">
          <mxGeometry x="450" y="625.5" width="390" height="40" as="geometry" />
        </mxCell>
        <mxCell id="FGlAUtilV3WjWaG7oi7A-33" value="Формирует" style="edgeLabel;html=1;align=center;verticalAlign=middle;resizable=0;points=[];" parent="1" vertex="1" connectable="0">
          <mxGeometry x="90" y="285" as="geometry" />
        </mxCell>
        <mxCell id="28Fehn1Z3vGQUDsWFlqz-3" value="Атрибут" style="rounded=0;whiteSpace=wrap;html=1;fontStyle=1;fillColor=#d5e8d4;strokeColor=#82b366;" vertex="1" parent="1">
          <mxGeometry x="240" y="220" width="210" height="30" as="geometry" />
        </mxCell>
        <mxCell id="28Fehn1Z3vGQUDsWFlqz-4" value="Описание" style="rounded=0;whiteSpace=wrap;html=1;fontStyle=1;fillColor=#d5e8d4;strokeColor=#82b366;" vertex="1" parent="1">
          <mxGeometry x="450" y="220" width="390" height="30" as="geometry" />
        </mxCell>
        <mxCell id="28Fehn1Z3vGQUDsWFlqz-5" value="Имя" style="rounded=0;whiteSpace=wrap;html=1;" vertex="1" parent="1">
          <mxGeometry x="240" y="250" width="210" height="30" as="geometry" />
        </mxCell>
        <mxCell id="28Fehn1Z3vGQUDsWFlqz-6" value="Имя пользователя" style="rounded=0;whiteSpace=wrap;html=1;" vertex="1" parent="1">
          <mxGeometry x="450" y="250" width="390" height="30" as="geometry" />
        </mxCell>
        <mxCell id="28Fehn1Z3vGQUDsWFlqz-7" value="Возраст" style="rounded=0;whiteSpace=wrap;html=1;" vertex="1" parent="1">
          <mxGeometry x="240" y="310" width="210" height="30" as="geometry" />
        </mxCell>
        <mxCell id="28Fehn1Z3vGQUDsWFlqz-8" value="Возраст пользователя" style="rounded=0;whiteSpace=wrap;html=1;" vertex="1" parent="1">
          <mxGeometry x="450" y="310" width="390" height="30" as="geometry" />
        </mxCell>
        <mxCell id="28Fehn1Z3vGQUDsWFlqz-9" value="&lt;b&gt;&lt;font style=&quot;font-size: 14px;&quot;&gt;Объект Анкета&lt;/font&gt;&lt;/b&gt;" style="text;html=1;align=left;verticalAlign=middle;whiteSpace=wrap;rounded=0;" vertex="1" parent="1">
          <mxGeometry x="250" y="180" width="190" height="30" as="geometry" />
        </mxCell>
        <mxCell id="28Fehn1Z3vGQUDsWFlqz-11" value="Просматривает&amp;nbsp;" style="edgeLabel;html=1;align=center;verticalAlign=middle;resizable=0;points=[];" vertex="1" connectable="0" parent="1">
          <mxGeometry x="180.5" y="160.5" as="geometry" />
        </mxCell>
        <mxCell id="28Fehn1Z3vGQUDsWFlqz-12" value="Статус" style="rounded=0;whiteSpace=wrap;html=1;" vertex="1" parent="1">
          <mxGeometry x="240" y="370" width="210" height="30" as="geometry" />
        </mxCell>
        <mxCell id="28Fehn1Z3vGQUDsWFlqz-13" value="Статус в отношениях пользователя" style="rounded=0;whiteSpace=wrap;html=1;" vertex="1" parent="1">
          <mxGeometry x="450" y="370" width="390" height="30" as="geometry" />
        </mxCell>
        <mxCell id="28Fehn1Z3vGQUDsWFlqz-14" value="Интересы" style="rounded=0;whiteSpace=wrap;html=1;" vertex="1" parent="1">
          <mxGeometry x="240" y="400" width="210" height="30" as="geometry" />
        </mxCell>
        <mxCell id="28Fehn1Z3vGQUDsWFlqz-15" value="Интересы пользователя" style="rounded=0;whiteSpace=wrap;html=1;" vertex="1" parent="1">
          <mxGeometry x="450" y="400" width="390" height="30" as="geometry" />
        </mxCell>
        <mxCell id="28Fehn1Z3vGQUDsWFlqz-16" value="Рост" style="rounded=0;whiteSpace=wrap;html=1;" vertex="1" parent="1">
          <mxGeometry x="240" y="340" width="210" height="30" as="geometry" />
        </mxCell>
        <mxCell id="28Fehn1Z3vGQUDsWFlqz-17" value="Рост пользователя" style="rounded=0;whiteSpace=wrap;html=1;" vertex="1" parent="1">
          <mxGeometry x="450" y="340" width="390" height="30" as="geometry" />
        </mxCell>
        <mxCell id="28Fehn1Z3vGQUDsWFlqz-18" value="Фото" style="rounded=0;whiteSpace=wrap;html=1;" vertex="1" parent="1">
          <mxGeometry x="240" y="430" width="210" height="30" as="geometry" />
        </mxCell>
        <mxCell id="28Fehn1Z3vGQUDsWFlqz-19" value="Фото пользователя" style="rounded=0;whiteSpace=wrap;html=1;" vertex="1" parent="1">
          <mxGeometry x="450" y="430" width="390" height="30" as="geometry" />
        </mxCell>
        <mxCell id="28Fehn1Z3vGQUDsWFlqz-20" value="О себе" style="rounded=0;whiteSpace=wrap;html=1;" vertex="1" parent="1">
          <mxGeometry x="240" y="280" width="210" height="30" as="geometry" />
        </mxCell>
        <mxCell id="28Fehn1Z3vGQUDsWFlqz-21" value="Описание пользователя" style="rounded=0;whiteSpace=wrap;html=1;" vertex="1" parent="1">
          <mxGeometry x="450" y="280" width="390" height="30" as="geometry" />
        </mxCell>
      </root>
    </mxGraphModel>
  </diagram>
</mxfile>
